<?xml version="1.0" encoding="UTF-8"?>
<svg width="1200" height="700" viewBox="0 0 1200 700" xmlns="http://www.w3.org/2000/svg" font-family="Source Sans Pro, Arial, sans-serif">
  <!-- Title -->
  <rect x="0" y="0" width="1200" height="84" fill="#ffffff"/>
  <text x="40" y="44" font-size="26" font-weight="700" fill="#111">Pennsylvania — ACA Rating Areas: 2026 Approved Rate Change (Individual Market)</text>
  <text x="40" y="70" font-size="12" fill="#666">Source: PA approved filings (PID Oct 2025) • Statewide weighted avg = 21.5% • Date: Jan 14, 2026</text>

  <!-- Legend -->
  <g transform="translate(920,20)">
    <text x="0" y="0" font-size="14" font-weight="700" fill="#111">Legend</text>
    <rect x="0" y="18" width="18" height="12" rx="2" fill="#3CB371"/><text x="26" y="28" font-size="12" fill="#111">&lt; 15% — Stable</text>
    <rect x="0" y="38" width="18" height="12" rx="2" fill="#FFD54F"/><text x="26" y="48" font-size="12" fill="#111">15–19% — Moderate</text>
    <rect x="0" y="58" width="18" height="12" rx="2" fill="#FF8C42"/><text x="26" y="68" font-size="12" fill="#111">20–25% — High</text>
    <rect x="0" y="78" width="18" height="12" rx="2" fill="#E53935"/><text x="26" y="88" font-size="12" fill="#111">&gt; 25% — Severe</text>
    <rect x="0" y="98" width="18" height="12" rx="2" fill="#BDBDBD"/><text x="26" y="108" font-size="12" fill="#111">Data pending</text>
  </g>

  <!-- Grid container -->
  <g transform="translate(40,120)" stroke="#fff" stroke-width="2">
    <!-- Row 1 -->
    <g transform="translate(0,0)">
      <!-- Area 1 -->
      <rect x="0" y="0" width="260" height="120" rx="10" fill="#FFD54F"/>
      <text x="16" y="28" font-size="14" font-weight="700" fill="#111">Area 1 — NW PA</text>
      <text x="16" y="52" font-size="13" fill="#111">Highmark, UPMC</text>
      <text x="16" y="78" font-size="20" font-weight="700" fill="#111">17.7% — 24.8%</text>
      <text x="16" y="102" font-size="11" fill="#666">Driver: Specialty pharmacy, market stabilization</text>
    </g>

    <g transform="translate(280,0)">
      <!-- Area 9 -->
      <rect x="0" y="0" width="260" height="120" rx="10" fill="#BDBDBD"/>
      <text x="16" y="28" font-size="14" font-weight="700" fill="#111">Area 9 — Capital / SE</text>
      <text x="16" y="52" font-size="13" fill="#666">Data pending</text>
    </g>

    <!-- Row 2 -->
    <g transform="translate(0,150)">
      <!-- Area 3 -->
      <rect x="0" y="0" width="260" height="120" rx="10" fill="url(#gradA3)"/>
      <text x="16" y="28" font-size="14" font-weight="700" fill="#111">Area 3 — NE PA</text>
      <text x="16" y="52" font-size="13" fill="#111">Geisinger, Oscar, Partners</text>
      <text x="16" y="78" font-size="20" font-weight="700" fill="#111">-10.1% — 23.1%</text>
      <text x="16" y="102" font-size="11" fill="#666">Driver: risk pool shifts; efficiency dividend</text>
    </g>

    <g transform="translate(280,150)">
      <!-- Area 5 -->
      <rect x="0" y="0" width="260" height="120" rx="10" fill="#BDBDBD"/>
      <text x="16" y="28" font-size="14" font-weight="700" fill="#111">Area 5 — Central Mountains</text>
      <text x="16" y="52" font-size="13" fill="#666">Data pending</text>
    </g>

    <!-- Row 3 -->
    <g transform="translate(0,300)">
      <!-- Area 4 -->
      <rect x="0" y="0" width="260" height="120" rx="10" fill="#FF8C42"/>
      <text x="16" y="28" font-size="14" font-weight="700" fill="#111">Area 4 — Pittsburgh</text>
      <text x="16" y="52" font-size="13" fill="#111">Highmark, UPMC</text>
      <text x="16" y="78" font-size="20" font-weight="700" fill="#111">17.7% — 20.2%</text>
    </g>

    <g transform="translate(280,300)">
      <!-- Area 6 -->
      <rect x="0" y="0" width="260" height="120" rx="10" fill="#FF8C42"/>
      <text x="16" y="28" font-size="14" font-weight="700" fill="#111">Area 6 — Lehigh Valley</text>
      <text x="16" y="52" font-size="13" fill="#111">Highmark, Capital Advantage</text>
      <text x="16" y="78" font-size="20" font-weight="700" fill="#111">17.7% — 24.6%</text>
    </g>

    <g transform="translate(560,300)">
      <!-- Area 8 -->
      <rect x="0" y="0" width="260" height="120" rx="10" fill="#E53935"/>
      <text x="16" y="28" font-size="14" font-weight="700" fill="#fff">Area 8 — Philadelphia</text>
      <text x="16" y="52" font-size="13" fill="#fff">Ambetter, Keystone East (IBX)</text>
      <text x="16" y="78" font-size="20" font-weight="700" fill="#fff">22.0% — 37.8%</text>
      <rect x="16" y="86" width="120" height="18" rx="6" fill="#fff" opacity="0.12"/>
      <text x="24" y="99" font-size="11" fill="#fff">Severe — highest volatility</text>
    </g>

    <!-- Row 4 -->
    <g transform="translate(280,450)">
      <!-- Area 7 -->
      <rect x="0" y="0" width="260" height="120" rx="10" fill="#BDBDBD"/>
      <text x="16" y="28" font-size="14" font-weight="700" fill="#111">Area 7 — South Central</text>
      <text x="16" y="52" font-size="13" fill="#666">Data pending</text>
    </g>

    <g transform="translate(560,450)">
      <!-- Area 2 -->
      <rect x="0" y="0" width="260" height="120" rx="10" fill="#BDBDBD"/>
      <text x="16" y="28" font-size="14" font-weight="700" fill="#111">Area 2 — SW Rural</text>
      <text x="16" y="52" font-size="13" fill="#666">Data pending</text>
    </g>
  </g>

  <!-- Definitions for gradient used in Area 3 -->
  <defs>
    <linearGradient id="gradA3" x1="0" x2="1">
      <stop offset="0%" stop-color="#3CB371"/>
      <stop offset="60%" stop-color="#FF8C42"/>
    </linearGradient>
  </defs>
</svg>
